<?xml version="1.0" encoding="utf-8"?>
<!-- Generator: Adobe Illustrator 23.0.2, SVG Export Plug-In . SVG Version: 6.00 Build 0)  -->
<svg version="1.2" baseProfile="tiny" id="Layer_1" xmlns="http://www.w3.org/2000/svg" xmlns:xlink="http://www.w3.org/1999/xlink"
	 x="0px" y="0px" viewBox="0 0 590.7 193.74" xml:space="preserve">
<path fill="none" stroke="#FFFFFF" stroke-miterlimit="10" d="M281.04,76.39c0,0,33.35-2.79,126-24S554.8,9.61,554.8,9.61"/>
<path fill="#FFFFFF" d="M48.95,152.2H15.23c1.38,4.35,5.24,6.92,10.78,6.92c4.35,0,8.7-1.68,11.67-4.45l7.52,9.49
	c-4.55,4.94-12.46,7.71-20.27,7.71C10.38,171.88,0,162.09,0,148.05c0-15.03,11.67-24.33,24.92-24.33c13.15,0,24.33,9.2,24.33,23.24
	C49.25,148.25,49.15,149.93,48.95,152.2z M34.61,143.6c-0.1-4.55-4.15-7.52-9.4-7.52c-4.45,0-8.6,1.98-10.09,7.52H34.61z"/>
<path fill="#FFFFFF" d="M132.91,146.17v24.82h-14.64v-23.64c0-7.12-3.56-9.3-7.32-9.3c-4.45,0-7.81,2.37-7.91,9.69v23.24H88.41
	v-23.64c0-7.12-3.56-9.3-7.22-9.3c-3.96,0-8.01,1.58-8.01,9.3v23.64H58.54v-46.08h14.64v8.5c1.19-6.72,7.81-9.69,12.46-9.69
	c6.82,0,11.97,3.16,14.64,8.7c3.16-6.23,10.28-8.7,15.13-8.7C126.98,123.72,132.91,132.03,132.91,146.17z"/>
<path fill="#FFFFFF" d="M141.91,147.85c0-14.64,11.87-24.13,25.02-24.13s25.12,9.49,25.12,24.13c0,14.54-11.97,24.03-25.12,24.03
	S141.91,162.39,141.91,147.85z M177.12,147.85c0-6.33-4.55-10.58-10.19-10.58s-10.19,4.25-10.19,10.58s4.55,10.48,10.19,10.48
	S177.12,154.18,177.12,147.85z"/>
<path fill="#FFFFFF" d="M189.68,180.19h5.83c4.25,0,6.82-3.46,6.82-8.7v-46.58h14.64v46.58c0,14.54-7.91,22.25-21.26,22.25h-6.03
	V180.19z M200.66,109.38c0-4.85,4.15-8.5,9-8.5c5.04,0,9,3.66,9,8.5c0,4.65-3.96,8.5-9,8.5
	C204.81,117.89,200.66,114.03,200.66,109.38z"/>
<path display="none" d="M227.46,109.38c0-4.85,4.15-8.5,9.1-8.5c4.94,0,8.9,3.66,8.9,8.5c0,4.65-3.96,8.5-8.9,8.5
	C231.61,117.89,227.46,114.03,227.46,109.38z"/>
<rect x="229.24" y="124.91" fill="#FFFFFF" width="14.64" height="46.08"/>
<path fill="#FFFFFF" d="M253.47,147.75c0-14.64,11.97-24.03,25.42-24.03c8.9,0,15.72,4.35,20.17,10.88l-11.27,7.12
	c-1.88-2.77-5.64-4.45-8.8-4.45c-6.72,0-10.68,4.75-10.68,10.48c0,5.83,3.96,10.58,10.68,10.58c3.16,0,6.92-1.68,8.8-4.45
	l11.27,7.12c-4.45,6.53-11.27,10.88-20.17,10.88C265.43,171.88,253.47,162.39,253.47,147.75z"/>
<path fill="#FFFFFF" d="M355.72,124.91v46.08h-14.54v-5.24c-3.36,4.35-9.59,6.13-14.34,6.13c-11.47,0-22.35-9.1-22.35-24.03
	c0-14.93,10.88-24.03,22.35-24.03c4.75,0,10.98,1.78,14.34,6.13v-5.04H355.72z M340.59,147.85c0-5.93-5.04-10.38-10.58-10.38
	c-5.74,0-10.68,4.55-10.68,10.38s4.94,10.38,10.68,10.38C335.65,158.23,340.59,153.78,340.59,147.85z"/>
<path fill="#FFFFFF" d="M397.06,135.88h-9.69v35.11h-14.64v-35.11h-8.41v-10.98h8.41v-16.61h14.64v16.61h9.69V135.88z"/>
<path fill="#FFFFFF" d="M401.51,147.75c0-14.64,11.97-24.03,25.42-24.03c8.9,0,15.72,4.35,20.17,10.88l-11.27,7.12
	c-1.88-2.77-5.64-4.45-8.8-4.45c-6.72,0-10.68,4.75-10.68,10.48c0,5.83,3.96,10.58,10.68,10.58c3.16,0,6.92-1.68,8.8-4.45L447.1,161
	c-4.45,6.53-11.27,10.88-20.17,10.88C413.48,171.88,401.51,162.39,401.51,147.75z"/>
<path fill="#FFFFFF" d="M501.99,146.17v24.82h-14.64v-23.14c0-7.12-4.35-9.79-8.01-9.79c-3.96,0-8.9,2.08-8.9,9.79v23.14h-14.64
	v-70.41h14.64v31.65c1.68-5.93,9.1-8.5,13.25-8.5C495.96,123.72,501.99,132.03,501.99,146.17z"/>
<path fill="#FFFFFF" d="M524.54,185.89c0,0,8,6,16,5c0,0,63-121,15-190c0,0-4-3-4,2C551.54,2.89,591.54,82.89,524.54,185.89z"/>
<path fill="#FFFFFF" d="M566.86,139.35c-8.27,0-14.97,6.7-14.97,14.97c0,8.27,6.7,14.97,14.97,14.97c8.27,0,14.97-6.7,14.97-14.97
	C581.83,146.05,575.13,139.35,566.86,139.35z M566.86,161.68c-4.06,0-7.35-3.29-7.35-7.35c0-4.06,3.29-7.35,7.35-7.35
	c4.06,0,7.35,3.29,7.35,7.35C574.21,158.39,570.92,161.68,566.86,161.68z"/>
<path fill="#FFFFFF" d="M586.73,140.35l-4.18,2.47l-13.42,7.71c-0.67-0.4-1.44-0.64-2.27-0.64c-2.45,0-4.44,1.99-4.44,4.44
	c0,2.45,1.99,4.44,4.44,4.44c2.42,0,4.38-1.94,4.43-4.35l13.48-7.74l2,3.22l3.93-1.92L586.73,140.35z"/>
<path fill="#FFFFFF" d="M281.66,73.13l-10.61,1.51c-0.95-6.69-7.14-11.34-13.82-10.39c-6.69,0.95-11.34,7.14-10.39,13.82
	c0.57,3.99,3,7.26,6.29,9.04c0,0-4.97-13.01,3.75-15.5c8.71-2.49,10.82,9.52,10.82,9.52l15.48-2.68L281.66,73.13z"/>
<path fill="#FFFFFF" d="M233.2,116.74l5-7.17c0.15-0.21,0.44-0.27,0.65-0.12s0.27,0.44,0.12,0.65l-5,7.17
	c-0.15,0.21-0.44,0.27-0.65,0.12C233.1,117.24,233.05,116.95,233.2,116.74z"/>
<path fill="#FFFFFF" d="M237.26,117.74l5-7.17c0.15-0.21,0.44-0.27,0.65-0.12c0.21,0.15,0.27,0.44,0.12,0.65l-5,7.17
	c-0.15,0.21-0.44,0.27-0.65,0.12C237.16,118.24,237.11,117.95,237.26,117.74z"/>
<path fill="#FFFFFF" d="M240.65,120.52l5-7.17c0.15-0.21,0.44-0.27,0.65-0.12s0.27,0.44,0.12,0.65l-5,7.17
	c-0.15,0.21-0.44,0.27-0.65,0.12S240.5,120.73,240.65,120.52z"/>
<g>
	<g>
		<g>
			<path fill="#FDD020" d="M248.94,109.41l-1.65-0.67c-6.08-2.46-9.02-9.39-6.55-15.47l0.09-0.22c2.46-6.08,9.39-9.02,15.47-6.55
				l1.65,0.67c6.08,2.46,9.02,9.39,6.55,15.47l-0.09,0.22C261.95,108.94,255.02,111.87,248.94,109.41z"/>
		</g>
		<g>
			<path fill="#FFFFFF" d="M243.31,91.23c-0.03-0.01-0.07-0.03-0.1-0.06c-0.17-0.14-0.2-0.39-0.06-0.56
				c2.22-2.8,5.67-4.38,9.25-4.23c0.22,0.01,0.39,0.19,0.38,0.41c-0.01,0.22-0.19,0.39-0.41,0.38c-3.32-0.14-6.53,1.32-8.59,3.93
				C243.66,91.25,243.47,91.29,243.31,91.23z"/>
		</g>
		<g>
			<path fill="#F7B922" d="M262.33,90.25c1.84,3.09,2.27,6.97,0.82,10.56l-0.09,0.22c-2.46,6.08-9.39,9.02-15.47,6.55l-1.65-0.67
				c-1.74-0.7-3.22-1.77-4.39-3.08c1.28,2.14,3.24,3.9,5.73,4.91l1.65,0.67c6.08,2.46,13.01-0.47,15.47-6.55l0.09-0.22
				C266.26,98.29,265.26,93.52,262.33,90.25z"/>
		</g>
	</g>
	<g>
		<g>
			<g>
				<path fill="#3D3506" d="M250.01,95.67c-0.3-0.12-0.45-0.47-0.33-0.77l0.13-0.32c0.23-0.56-0.04-1.19-0.6-1.42
					c-0.59-0.24-1.23,0.03-1.45,0.59l-0.13,0.32c-0.12,0.3-0.47,0.45-0.77,0.33c-0.3-0.12-0.45-0.47-0.33-0.77l0.13-0.32
					c0.47-1.17,1.8-1.73,2.97-1.26c1.2,0.48,1.76,1.82,1.29,2.98l-0.13,0.32C250.66,95.65,250.31,95.8,250.01,95.67z"/>
			</g>
		</g>
		<g>
			<g>
				<path fill="#3D3506" d="M259.24,99.41c-0.3-0.12-0.45-0.47-0.33-0.77l0.13-0.32c0.23-0.56-0.04-1.19-0.6-1.42
					c-0.59-0.24-1.23,0.03-1.45,0.59l-0.13,0.32c-0.12,0.3-0.47,0.45-0.77,0.33c-0.3-0.12-0.45-0.47-0.33-0.77l0.13-0.32
					c0.47-1.17,1.8-1.73,2.97-1.26c1.2,0.48,1.76,1.82,1.29,2.98l-0.13,0.32C259.89,99.38,259.55,99.53,259.24,99.41z"/>
			</g>
		</g>
	</g>
	<g>
		<path fill="#3D3506" d="M251.86,99.83c-2.51-1.02-5.41-1.23-7.2-0.84c0,0-0.29,5.09,4.67,7.09c4.96,2.01,8.29-1.85,8.29-1.85
			C256.61,102.71,254.38,100.84,251.86,99.83z"/>
	</g>
	<g>
		<path fill="#FFFFFF" d="M246.23,98.81c1.17,1.07,2.99,2.04,5.15,2.91c2.15,0.87,3.74,1.28,5.24,1.3
			c-1.17-1.21-2.89-2.43-4.76-3.19C250,99.07,247.91,98.76,246.23,98.81z"/>
	</g>
	<g>
		<path fill="#ED551F" d="M254.03,106.4c-0.51-1.46-1.81-2.59-3.5-3.28c-1.7-0.69-3.41-0.77-4.8-0.08c0.68,1.16,1.79,2.3,3.6,3.04
			C251.14,106.81,252.74,106.76,254.03,106.4z"/>
	</g>
</g>
</svg>
