<?xml version="1.0" encoding="utf-8"?>
<!-- Generator: Adobe Illustrator 23.0.2, SVG Export Plug-In . SVG Version: 6.00 Build 0)  -->
<svg version="1.1" id="Layer_1" xmlns="http://www.w3.org/2000/svg" xmlns:xlink="http://www.w3.org/1999/xlink" x="0px" y="0px"
	 viewBox="0 0 264.3 264.3" style="enable-background:new 0 0 264.3 264.3;" xml:space="preserve">
<style type="text/css">
	.st0{display:none;}
	.st1{fill:url(#SVGID_1_);}
	.st2{fill:none;stroke:#FFFFFF;stroke-miterlimit:10;}
	.st3{fill:#FFFFFF;}
	.st4{fill:#FDD020;}
	.st5{fill:#F7B922;}
	.st6{fill:#3D3506;}
	.st7{fill:#ED551F;}
</style>
<path class="st0" d="M177.9,126.2c0-4.8,4.1-8.5,9.1-8.5c4.9,0,8.9,3.7,8.9,8.5c0,4.6-4,8.5-8.9,8.5
	C182.1,134.7,177.9,130.8,177.9,126.2z"/>
<linearGradient id="SVGID_1_" gradientUnits="userSpaceOnUse" x1="-0.5304" y1="165.478" x2="273.0935" y2="96.781">
	<stop  offset="0" style="stop-color:#F5AFD6;stop-opacity:0.98"/>
	<stop  offset="0.994" style="stop-color:#914DAD"/>
</linearGradient>
<rect class="st1" width="264.3" height="264.3"/>
<g>
	<path class="st2" d="M92.1,125.9c0,0,9.4-4.3,35.6-36.6s41.8-65.2,41.8-65.2"/>
	<path class="st3" d="M131.4,245.8c0,0,10.1,7.5,20.1,6.3c0,0,79.2-152.1,18.9-238.8c0,0-5-3.8-5,2.5
		C165.3,15.7,215.6,116.3,131.4,245.8z"/>
	<path class="st3" d="M184.6,187.3c-10.4,0-18.8,8.4-18.8,18.8s8.4,18.8,18.8,18.8c10.4,0,18.8-8.4,18.8-18.8
		C203.4,195.7,195,187.3,184.6,187.3z M184.6,215.4c-5.1,0-9.2-4.1-9.2-9.2c0-5.1,4.1-9.2,9.2-9.2c5.1,0,9.2,4.1,9.2,9.2
		C193.8,211.2,189.7,215.4,184.6,215.4z"/>
	<path class="st3" d="M209.6,188.5l-5.3,3.1l-16.9,9.7c-0.8-0.5-1.8-0.8-2.9-0.8c-3.1,0-5.6,2.5-5.6,5.6c0,3.1,2.5,5.6,5.6,5.6
		c3,0,5.5-2.4,5.6-5.5l16.9-9.7l2.5,4l4.9-2.4L209.6,188.5z"/>
	<path class="st3" d="M93.5,122.7l-7.1,7c-4.4-4.5-11.6-4.5-16-0.1c-4.5,4.4-4.5,11.6-0.1,16c2.6,2.7,6.2,3.8,9.7,3.3
		c0,0-10.9-7-5.7-13.6c5.1-6.7,13.3,1.1,13.3,1.1l10.1-10.5L93.5,122.7z"/>
	<path class="st3" d="M49.9,217.2L61,201.3c0.3-0.5,1-0.6,1.4-0.3c0.5,0.3,0.6,1,0.3,1.4l-11.1,15.9c-0.3,0.5-1,0.6-1.4,0.3
		C49.7,218.3,49.6,217.6,49.9,217.2z"/>
	<path class="st3" d="M58.9,219.4L70,203.5c0.3-0.5,1-0.6,1.4-0.3c0.5,0.3,0.6,1,0.3,1.4l-11.1,15.9c-0.3,0.5-1,0.6-1.4,0.3
		C58.7,220.5,58.6,219.8,58.9,219.4z"/>
	<path class="st3" d="M66.4,225.5l11.1-15.9c0.3-0.5,1-0.6,1.4-0.3c0.5,0.3,0.6,1,0.3,1.4l-11.1,15.9c-0.3,0.5-1,0.6-1.4,0.3
		S66.1,226,66.4,225.5z"/>
	<g>
		<g>
			<g>
				<path class="st4" d="M81,196.4l-3.7-1.5c-13.5-5.4-20-20.8-14.5-34.2l0.2-0.5c5.4-13.5,20.8-20,34.2-14.5l3.7,1.5
					c13.5,5.4,20,20.8,14.5,34.2l-0.2,0.5C109.8,195.3,94.4,201.8,81,196.4z"/>
			</g>
			<g>
				<path class="st3" d="M68.5,156.2c-0.1,0-0.2-0.1-0.2-0.1c-0.4-0.3-0.4-0.9-0.1-1.2c4.9-6.2,12.5-9.7,20.5-9.4
					c0.5,0,0.9,0.4,0.8,0.9c0,0.5-0.4,0.9-0.9,0.8c-7.3-0.3-14.4,2.9-19,8.7C69.3,156.2,68.9,156.3,68.5,156.2z"/>
			</g>
			<g>
				<path class="st5" d="M110.6,154c4.1,6.8,5,15.4,1.8,23.4l-0.2,0.5c-5.4,13.5-20.8,20-34.2,14.5l-3.7-1.5
					c-3.8-1.5-7.1-3.9-9.7-6.8c2.8,4.7,7.2,8.6,12.7,10.9l3.7,1.5c13.5,5.4,28.8-1,34.2-14.5l0.2-0.5
					C119.3,171.8,117.1,161.2,110.6,154z"/>
			</g>
		</g>
		<g>
			<g>
				<g>
					<path class="st6" d="M83.4,166c-0.7-0.3-1-1-0.7-1.7l0.3-0.7c0.5-1.2-0.1-2.6-1.3-3.1c-1.3-0.5-2.7,0.1-3.2,1.3l-0.3,0.7
						c-0.3,0.7-1,1-1.7,0.7c-0.7-0.3-1-1-0.7-1.7l0.3-0.7c1-2.6,4-3.8,6.6-2.8c2.7,1.1,3.9,4,2.9,6.6l-0.3,0.7
						C84.8,165.9,84,166.3,83.4,166z"/>
				</g>
			</g>
			<g>
				<g>
					<path class="st6" d="M103.8,174.3c-0.7-0.3-1-1-0.7-1.7l0.3-0.7c0.5-1.2-0.1-2.6-1.3-3.1c-1.3-0.5-2.7,0.1-3.2,1.3l-0.3,0.7
						c-0.3,0.7-1,1-1.7,0.7c-0.7-0.3-1-1-0.7-1.7l0.3-0.7c1-2.6,4-3.8,6.6-2.8c2.7,1.1,3.9,4,2.9,6.6l-0.3,0.7
						C105.2,174.2,104.5,174.5,103.8,174.3z"/>
				</g>
			</g>
		</g>
		<g>
			<path class="st6" d="M87.4,175.2c-5.6-2.3-12-2.7-15.9-1.9c0,0-0.6,11.3,10.3,15.7c11,4.4,18.3-4.1,18.3-4.1
				C98,181.6,93,177.4,87.4,175.2z"/>
		</g>
		<g>
			<path class="st3" d="M75,172.9c2.6,2.4,6.6,4.5,11.4,6.4c4.8,1.9,8.3,2.8,11.6,2.9c-2.6-2.7-6.4-5.4-10.5-7.1
				C83.3,173.5,78.7,172.8,75,172.9z"/>
		</g>
		<g>
			<path class="st7" d="M92.2,189.7c-1.1-3.2-4-5.7-7.7-7.3c-3.8-1.5-7.5-1.7-10.6-0.2c1.5,2.6,4,5.1,8,6.7
				C85.9,190.6,89.4,190.5,92.2,189.7z"/>
		</g>
	</g>
</g>
</svg>
