<?xml version="1.0" encoding="utf-8"?>
<!-- Generator: Adobe Illustrator 23.0.2, SVG Export Plug-In . SVG Version: 6.00 Build 0)  -->
<svg version="1.1" id="Layer_1" xmlns="http://www.w3.org/2000/svg" xmlns:xlink="http://www.w3.org/1999/xlink" x="0px" y="0px"
	 viewBox="0 0 264.3 264.3" style="enable-background:new 0 0 264.3 264.3;" xml:space="preserve">
<style type="text/css">
	.st0{display:none;}
	.st1{fill:url(#SVGID_1_);}
	.st2{fill:none;stroke:#FFFFFF;stroke-width:3;stroke-miterlimit:10;}
	.st3{fill:#FFFFFF;}
	.st4{fill:#FDD020;}
	.st5{fill:#F7B922;}
	.st6{fill:#3D3506;}
	.st7{fill:#ED551F;}
</style>
<path class="st0" d="M177.9,126.2c0-4.8,4.1-8.5,9.1-8.5c4.9,0,8.9,3.7,8.9,8.5c0,4.6-4,8.5-8.9,8.5S177.9,130.8,177.9,126.2z"/>
<radialGradient id="SVGID_1_" cx="131.7347" cy="132.15" r="132.15" gradientUnits="userSpaceOnUse">
	<stop  offset="0" style="stop-color:#B59BDB;stop-opacity:0.98"/>
	<stop  offset="0.994" style="stop-color:#914DAD"/>
</radialGradient>
<rect x="-0.4" y="0" class="st1" width="264.3" height="264.3"/>
<path class="st2" d="M315.1,48"/>
<path class="st2" d="M223.1,57.9c0,0,15,1.4,64-13.2"/>
<path class="st3" d="M223.4,53.3l-20.9,3C200.7,43.1,188.4,34,175.4,36c-13.2,1.8-22.3,14.1-20.3,27.1c1,7.9,5.8,14.3,12.4,17.8
	c0,0-9.8-25.6,7.4-30.3c17.1-5,21.3,18.6,21.3,18.6l30.4-5.2L223.4,53.3z"/>
<path class="st3" d="M-7.8,248.3l40.2-38.6c1.1-1.2,3.2-1.1,4.1-0.1c1.2,1.1,1.1,3.2,0.1,4.1l-40.2,38.6c-1.1,1.2-3.2,1.1-4.1,0.1
	C-9,251.3-8.9,249.3-7.8,248.3z"/>
<path class="st3" d="M16.3,259.6L56.5,221c1.1-1.2,3.2-1.1,4.1-0.1c1.2,1.1,1.1,3.2,0.1,4.1l-40.2,38.6c-1.1,1.2-3.2,1.1-4.1,0.1
	C15.1,262.5,15.3,260.5,16.3,259.6z"/>
<path class="st3" d="M34,280.9l40.2-38.6c1.1-1.2,3.2-1.1,4.1-0.1c1.2,1.1,1.1,3.2,0.1,4.1L38.2,285c-1.1,1.2-3.2,1.1-4.1,0.1
	S32.9,282.2,34,280.9z"/>
<g>
	<g>
		<g>
			<path class="st4" d="M108.5,219.5l-10.6-4.3c-38.8-15.5-57.5-59.8-41.7-98.3l0.6-1.4C72.3,76.7,116.5,58,155,73.8l10.6,4.3
				c38.8,15.5,57.5,59.8,41.7,98.3l-0.6,1.4C191.2,216.3,147,235,108.5,219.5z"/>
		</g>
		<g>
			<path class="st3" d="M72.6,104c-0.3,0-0.6-0.3-0.6-0.3c-1.1-0.9-1.1-2.6-0.3-3.4c14.1-17.8,35.9-27.9,58.9-27
				c1.4,0,2.6,1.1,2.3,2.6c0,1.4-1.1,2.6-2.6,2.3c-21-0.9-41.4,8.3-54.6,25C74.9,104,73.7,104.3,72.6,104z"/>
		</g>
		<g>
			<path class="st5" d="M193.5,97.7c11.8,19.5,14.4,44.2,5.2,67.2l-0.6,1.4c-15.5,38.8-59.8,57.5-98.3,41.7l-10.6-4.3
				c-10.9-4.3-20.4-11.2-27.9-19.5c8,13.5,20.7,24.7,36.5,31.3l10.6,4.3c38.8,15.5,82.7-2.9,98.3-41.7l0.6-1.4
				C218.5,148.8,212.2,118.4,193.5,97.7z"/>
		</g>
	</g>
	<g>
		<g>
			<g>
				<path class="st6" d="M115.4,132.2c-2-0.9-2.9-2.9-2-4.9l0.9-2c1.4-3.4-0.3-7.5-3.7-8.9c-3.7-1.4-7.8,0.3-9.2,3.7l-0.9,2
					c-0.9,2-2.9,2.9-4.9,2c-2-0.9-2.9-2.9-2-4.9l0.9-2c2.9-7.5,11.5-10.9,19-8c7.8,3.2,11.2,11.5,8.3,19l-0.9,2
					C119.4,131.9,117.1,133,115.4,132.2z"/>
			</g>
		</g>
		<g>
			<g>
				<path class="st6" d="M174,156c-2-0.9-2.9-2.9-2-4.9l0.9-2c1.4-3.4-0.3-7.5-3.7-8.9c-3.7-1.4-7.8,0.3-9.2,3.7l-0.9,2
					c-0.9,2-2.9,2.9-4.9,2c-2-0.9-2.9-2.9-2-4.9l0.9-2c2.9-7.5,11.5-10.9,19-8c7.8,3.2,11.2,11.5,8.3,19l-0.9,2
					C178,155.7,176,156.6,174,156z"/>
			</g>
		</g>
	</g>
	<g>
		<path class="st6" d="M126.9,158.6c-16.1-6.6-34.5-7.8-45.7-5.5c0,0-1.7,32.5,29.6,45.1c31.6,12.6,52.6-11.8,52.6-11.8
			C157.3,177,142.9,164.9,126.9,158.6z"/>
	</g>
	<g>
		<path class="st3" d="M91.2,152c7.5,6.9,19,12.9,32.8,18.4c13.8,5.5,23.8,8,33.3,8.3c-7.5-7.8-18.4-15.5-30.2-20.4
			C115.1,153.7,101.9,151.7,91.2,152z"/>
	</g>
	<g>
		<path class="st7" d="M140.6,200.3c-3.2-9.2-11.5-16.4-22.1-21c-10.9-4.3-21.5-4.9-30.5-0.6c4.3,7.5,11.5,14.7,23,19.2
			C122.5,202.8,132.6,202.6,140.6,200.3z"/>
	</g>
</g>
</svg>
