<?xml version="1.0" encoding="utf-8"?>
<!-- Generator: Adobe Illustrator 23.0.2, SVG Export Plug-In . SVG Version: 6.00 Build 0)  -->
<svg version="1.1" id="Layer_1" xmlns="http://www.w3.org/2000/svg" xmlns:xlink="http://www.w3.org/1999/xlink" x="0px" y="0px"
	 viewBox="0 0 3401.6 1785.8" style="enable-background:new 0 0 3401.6 1785.8;" xml:space="preserve">
<style type="text/css">
	.st0{display:none;}
	.st1{fill:url(#SVGID_1_);}
	.st2{fill:none;stroke:#FFFFFF;stroke-width:3;stroke-miterlimit:10;}
	.st3{fill:none;stroke:#FFFFFF;stroke-miterlimit:10;}
	.st4{fill:#FFFFFF;}
	.st5{fill:#FDD020;}
	.st6{fill:#F7B922;}
	.st7{fill:#3D3506;}
	.st8{fill:#ED551F;}
	.st9{opacity:0.99;fill:#FFFFFF;}
	.st10{font-family:'SegoeUI-Bold';}
	.st11{font-size:195.5938px;}
</style>
<path class="st0" d="M1746.5,887c0-4.8,4.1-8.5,9.1-8.5c4.9,0,8.9,3.7,8.9,8.5c0,4.6-4,8.5-8.9,8.5
	C1750.7,895.5,1746.5,891.6,1746.5,887z"/>
<radialGradient id="SVGID_1_" cx="1700.3589" cy="892.9134" r="132.15" gradientTransform="matrix(12.8615 0 0 6.7526 -20168.3477 -5136.5073)" gradientUnits="userSpaceOnUse">
	<stop  offset="0" style="stop-color:#B59BDB;stop-opacity:0.98"/>
	<stop  offset="0.994" style="stop-color:#914DAD"/>
</radialGradient>
<rect x="1.1" y="0.6" class="st1" width="3399.3" height="1784.7"/>
<g>
	<path class="st2" d="M1950.8,808.8"/>
	<path class="st3" d="M1625.5,632c0,0,175.5-14.7,663.2-126.3s777.7-225.2,777.7-225.2"/>
	<path class="st4" d="M403.9,1031H226.4c7.3,22.9,27.6,36.4,56.7,36.4c22.9,0,45.8-8.8,61.4-23.4l39.6,49.9
		c-23.9,26-65.6,40.6-106.7,40.6c-76.6,0.1-131.2-51.5-131.2-125.4c0-79.1,61.4-128.1,131.2-128.1c69.2,0,128.1,48.4,128.1,122.3
		C405.5,1010.2,404.9,1019.1,403.9,1031z M328.4,985.7c-0.5-23.9-21.8-39.6-49.5-39.6c-23.4,0-45.3,10.4-53.1,39.6H328.4z"/>
	<path class="st4" d="M845.8,999.3v130.6h-77.1v-124.4c0-37.5-18.7-48.9-38.5-48.9c-23.4,0-41.1,12.5-41.6,51v122.3h-77v-124.4
		c0-37.5-18.7-48.9-38-48.9c-20.8,0-42.2,8.3-42.2,48.9v124.4h-77.1V887.3h77.1v44.7c6.3-35.4,41.1-51,65.6-51
		c35.9,0,63,16.6,77.1,45.8c16.6-32.8,54.1-45.8,79.6-45.8C814.6,881.1,845.8,924.8,845.8,999.3z"/>
	<path class="st4" d="M893.2,1008.1c0-77.1,62.5-127,131.7-127s132.2,49.9,132.2,127c0,76.5-63,126.5-132.2,126.5
		S893.2,1084.6,893.2,1008.1z M1078.5,1008.1c0-33.3-23.9-55.7-53.6-55.7c-29.7,0-53.6,22.4-53.6,55.7s23.9,55.2,53.6,55.2
		C1054.6,1063.3,1078.5,1041.4,1078.5,1008.1z"/>
	<path class="st4" d="M1144.6,1178.3h30.7c22.4,0,35.9-18.2,35.9-45.8V887.4h77.1v245.2c0,76.5-41.6,117.1-111.9,117.1h-31.7
		L1144.6,1178.3L1144.6,1178.3z M1202.4,805.6c0-25.5,21.8-44.7,47.4-44.7c26.5,0,47.4,19.3,47.4,44.7c0,24.5-20.8,44.7-47.4,44.7
		C1224.2,850.4,1202.4,830.1,1202.4,805.6z"/>
	<rect x="1352.8" y="887.4" class="st4" width="77.1" height="242.5"/>
	<path class="st4" d="M1480.4,1007.6c0-77.1,63-126.5,133.8-126.5c46.8,0,82.7,22.9,106.2,57.3l-59.3,37.5
		c-9.9-14.6-29.7-23.4-46.3-23.4c-35.4,0-56.2,25-56.2,55.2c0,30.7,20.8,55.7,56.2,55.7c16.6,0,36.4-8.8,46.3-23.4l59.3,37.5
		c-23.4,34.4-59.3,57.3-106.2,57.3C1543.3,1134.6,1480.4,1084.6,1480.4,1007.6z"/>
	<path class="st4" d="M2018.5,887.4v242.5H1942v-27.6c-17.7,22.9-50.5,32.3-75.5,32.3c-60.4,0-117.6-47.9-117.6-126.5
		s57.3-126.5,117.6-126.5c25,0,57.8,9.4,75.5,32.3v-26.5C1942,887.4,2018.5,887.4,2018.5,887.4z M1938.9,1008.1
		c0-31.2-26.5-54.6-55.7-54.6c-30.2,0-56.2,23.9-56.2,54.6s26,54.6,56.2,54.6C1912.9,1062.7,1938.9,1039.3,1938.9,1008.1z"/>
	<path class="st4" d="M2236.1,945.1h-51v184.8h-77.1V945.1h-44.3v-57.8h44.3v-87.4h77.1v87.4h51V945.1z"/>
	<path class="st4" d="M2259.5,1007.6c0-77.1,63-126.5,133.8-126.5c46.8,0,82.7,22.9,106.2,57.3l-59.3,37.5
		c-9.9-14.6-29.7-23.4-46.3-23.4c-35.4,0-56.2,25-56.2,55.2c0,30.7,20.8,55.7,56.2,55.7c16.6,0,36.4-8.8,46.3-23.4l59.3,37.5
		c-23.4,34.4-59.3,57.3-106.2,57.3C2322.5,1134.6,2259.5,1084.6,2259.5,1007.6z"/>
	<path class="st4" d="M2788.4,999.3v130.6h-77.1v-121.8c0-37.5-22.9-51.5-42.2-51.5c-20.8,0-46.8,10.9-46.8,51.5v121.8h-77.1V759.3
		h77.1v166.6c8.8-31.2,47.9-44.7,69.7-44.7C2756.7,881.1,2788.4,924.8,2788.4,999.3z"/>
	<path class="st4" d="M2907.1,1208.3c0,0,42.1,31.6,84.2,26.3c0,0,331.6-636.9,79-1000c0,0-21.1-15.8-21.1,10.5
		C3049.2,245.1,3259.7,666.2,2907.1,1208.3z"/>
	<path class="st4" d="M3129.8,963.4c-43.5,0-78.8,35.3-78.8,78.8c0,43.5,35.3,78.8,78.8,78.8c43.5,0,78.8-35.3,78.8-78.8
		C3208.6,998.6,3173.4,963.4,3129.8,963.4z M3129.8,1080.9c-21.4,0-38.7-17.3-38.7-38.7s17.3-38.7,38.7-38.7
		c21.4,0,38.7,17.3,38.7,38.7C3168.5,1063.6,3151.2,1080.9,3129.8,1080.9z"/>
	<path class="st4" d="M3234.4,968.6l-22,13l-70.6,40.6c-3.5-2.1-7.6-3.4-11.9-3.4c-12.9,0-23.4,10.5-23.4,23.4s10.5,23.4,23.4,23.4
		c12.7,0,23.1-10.2,23.3-22.9l70.9-40.7l10.5,16.9l20.7-10.1L3234.4,968.6z"/>
	<path class="st4" d="M1628.7,614.8l-55.8,7.9c-5-35.2-37.6-59.7-72.7-54.7c-35.2,5-59.7,37.6-54.7,72.7c3,21,15.8,38.2,33.1,47.6
		c0,0-26.2-68.5,19.7-81.6c45.8-13.1,56.9,50.1,56.9,50.1l81.5-14.1L1628.7,614.8z"/>
	<path class="st4" d="M1373.7,844.4l26.3-37.7c0.8-1.1,2.3-1.4,3.4-0.6c1.1,0.8,1.4,2.3,0.6,3.4l-26.3,37.7
		c-0.8,1.1-2.3,1.4-3.4,0.6C1373.1,847,1372.9,845.5,1373.7,844.4z"/>
	<path class="st4" d="M1395,849.6l26.3-37.7c0.8-1.1,2.3-1.4,3.4-0.6c1.1,0.8,1.4,2.3,0.6,3.4l-26.3,37.7c-0.8,1.1-2.3,1.4-3.4,0.6
		C1394.5,852.3,1394.2,850.7,1395,849.6z"/>
	<path class="st4" d="M1412.9,864.3l26.3-37.7c0.8-1.1,2.3-1.4,3.4-0.6s1.4,2.3,0.6,3.4l-26.3,37.7c-0.8,1.1-2.3,1.4-3.4,0.6
		C1412.4,866.9,1412.1,865.4,1412.9,864.3z"/>
	<g>
		<g>
			<g>
				<path class="st5" d="M1456.5,805.8l-8.7-3.5c-32-12.9-47.5-49.4-34.5-81.4l0.5-1.2c12.9-32,49.4-47.5,81.4-34.5l8.7,3.5
					c32,12.9,47.5,49.4,34.5,81.4l-0.5,1.2C1525,803.3,1488.5,818.7,1456.5,805.8z"/>
			</g>
			<g>
				<path class="st4" d="M1426.9,710.1c-0.2-0.1-0.4-0.2-0.5-0.3c-0.9-0.7-1.1-2.1-0.3-2.9c11.7-14.7,29.8-23.1,48.7-22.3
					c1.2,0.1,2.1,1,2,2.2s-1,2.1-2.2,2c-17.5-0.7-34.4,6.9-45.2,20.7C1428.7,710.2,1427.7,710.4,1426.9,710.1z"/>
			</g>
			<g>
				<path class="st6" d="M1527,704.9c9.7,16.3,11.9,36.7,4.3,55.6l-0.5,1.2c-12.9,32-49.4,47.5-81.4,34.5l-8.7-3.5
					c-9.2-3.7-16.9-9.3-23.1-16.2c6.7,11.3,17.1,20.5,30.2,25.8l8.7,3.5c32,12.9,68.5-2.5,81.4-34.5l0.5-1.2
					C1547.7,747.3,1542.4,722.2,1527,704.9z"/>
			</g>
		</g>
		<g>
			<g>
				<g>
					<path class="st7" d="M1462.1,733.5c-1.6-0.6-2.4-2.5-1.7-4.1l0.7-1.7c1.2-2.9-0.2-6.3-3.2-7.5c-3.1-1.3-6.5,0.2-7.6,3.1
						l-0.7,1.7c-0.6,1.6-2.5,2.4-4.1,1.7c-1.6-0.6-2.4-2.5-1.7-4.1l0.7-1.7c2.5-6.2,9.5-9.1,15.6-6.6c6.3,2.5,9.3,9.6,6.8,15.7
						l-0.7,1.7C1465.6,733.4,1463.7,734.2,1462.1,733.5z"/>
				</g>
			</g>
			<g>
				<g>
					<path class="st7" d="M1510.7,753.2c-1.6-0.6-2.4-2.5-1.7-4.1l0.7-1.7c1.2-2.9-0.2-6.3-3.2-7.5c-3.1-1.3-6.5,0.2-7.6,3.1
						l-0.7,1.7c-0.6,1.6-2.5,2.4-4.1,1.7c-1.6-0.6-2.4-2.5-1.7-4.1l0.7-1.7c2.5-6.2,9.5-9.1,15.6-6.6c6.3,2.5,9.3,9.6,6.8,15.7
						l-0.7,1.7C1514.1,753,1512.4,753.8,1510.7,753.2z"/>
				</g>
			</g>
		</g>
		<g>
			<path class="st7" d="M1471.9,755.4c-13.2-5.4-28.5-6.5-37.9-4.4c0,0-1.5,26.8,24.6,37.3c26.1,10.6,43.6-9.7,43.6-9.7
				C1496.9,770.5,1485.1,760.7,1471.9,755.4z"/>
		</g>
		<g>
			<path class="st4" d="M1442.3,750c6.2,5.6,15.7,10.7,27.1,15.3c11.3,4.6,19.7,6.7,27.6,6.8c-6.2-6.4-15.2-12.8-25.1-16.8
				C1462.1,751.4,1451.1,749.7,1442.3,750z"/>
		</g>
		<g>
			<path class="st8" d="M1483.3,789.9c-2.7-7.7-9.5-13.6-18.4-17.3c-8.9-3.6-17.9-4.1-25.3-0.4c3.6,6.1,9.4,12.1,18.9,16
				C1468.1,792.1,1476.5,791.8,1483.3,789.9z"/>
		</g>
	</g>
</g>
<text transform="matrix(1 0 0 1 466.4357 1546.3047)" class="st9 st10 st11">search every emoji domain</text>
</svg>
