<?xml version="1.0" encoding="utf-8"?>
<!-- Generator: Adobe Illustrator 23.0.2, SVG Export Plug-In . SVG Version: 6.00 Build 0)  -->
<svg version="1.1" id="Layer_1" xmlns="http://www.w3.org/2000/svg" xmlns:xlink="http://www.w3.org/1999/xlink" x="0px" y="0px"
	 viewBox="0 0 2902.7 1451.3" style="enable-background:new 0 0 2902.7 1451.3;" xml:space="preserve">
<style type="text/css">
	.st0{display:none;}
	.st1{fill:url(#SVGID_1_);}
	.st2{fill:none;stroke:#FFFFFF;stroke-width:3;stroke-miterlimit:10;}
	.st3{fill:none;stroke:#FFFFFF;stroke-miterlimit:10;}
	.st4{fill:#FFFFFF;}
	.st5{fill:#FDD020;}
	.st6{fill:#F7B922;}
	.st7{fill:#3D3506;}
	.st8{fill:#ED551F;}
	.st9{opacity:0.99;fill:#FFFFFF;}
	.st10{font-family:'SegoeUI-Bold';}
	.st11{font-size:159.3998px;}
</style>
<path class="st0" d="M1497.1,719.7c0-4.8,4.1-8.5,9.1-8.5c4.9,0,8.9,3.7,8.9,8.5c0,4.6-4,8.5-8.9,8.5S1497.1,724.3,1497.1,719.7z"/>
<radialGradient id="SVGID_1_" cx="1445.775" cy="725.5869" r="107.6961" gradientTransform="matrix(13.475 0 0 6.7526 -18030.4844 -4174.4199)" gradientUnits="userSpaceOnUse">
	<stop  offset="0" style="stop-color:#B59BDB;stop-opacity:0.98"/>
	<stop  offset="0.994" style="stop-color:#914DAD"/>
</radialGradient>
<rect x="0.1" y="-2.1" class="st1" width="2902.4" height="1454.5"/>
<g>
	<path class="st2" d="M1655.1,656.5"/>
	<path class="st3" d="M1390,512.5c0,0,143.1-12,540.5-102.9S2564.2,226,2564.2,226"/>
	<path class="st4" d="M394.4,837.7H249.8c5.9,18.7,22.5,29.7,46.2,29.7c18.7,0,37.3-7.2,50.1-19.1l32.3,40.7
		c-19.5,21.2-53.4,33.1-86.9,33.1c-62.4,0-106.9-42-106.9-102.2c0-64.5,50.1-104.4,106.9-104.4c56.4,0,104.4,39.5,104.4,99.7
		C395.7,820.7,395.3,827.9,394.4,837.7z M332.9,800.8c-0.4-19.5-17.8-32.3-40.3-32.3c-19.1,0-36.9,8.5-43.3,32.3H332.9z"/>
	<path class="st4" d="M754.6,811.8v106.5h-62.8V816.9c0-30.5-15.3-39.9-31.4-39.9c-19.1,0-33.5,10.2-33.9,41.6v99.7h-62.8V816.8
		c0-30.5-15.3-39.9-31-39.9c-17,0-34.4,6.8-34.4,39.9v101.4h-62.8V720.6h62.8V757c5.1-28.8,33.5-41.6,53.4-41.6
		c29.3,0,51.3,13.6,62.8,37.3c13.6-26.7,44.1-37.3,64.9-37.3C729.1,715.5,754.6,751.1,754.6,811.8z"/>
	<path class="st4" d="M793.2,819c0-62.8,50.9-103.5,107.3-103.5c56.4,0,107.7,40.7,107.7,103.5c0,62.4-51.3,103.1-107.7,103.1
		C844.1,922.1,793.2,881.4,793.2,819z M944.2,819c0-27.2-19.5-45.4-43.7-45.4c-24.2,0-43.7,18.2-43.7,45.4s19.5,45,43.7,45
		C924.7,864,944.2,846.2,944.2,819z"/>
	<path class="st4" d="M998.1,957.7h25c18.2,0,29.3-14.8,29.3-37.3V720.6h62.8v199.8c0,62.4-33.9,95.4-91.2,95.4h-25.9L998.1,957.7
		L998.1,957.7z M1045.2,654c0-20.8,17.8-36.5,38.6-36.5c21.6,0,38.6,15.7,38.6,36.5c0,19.9-17,36.5-38.6,36.5
		C1063,690.5,1045.2,673.9,1045.2,654z"/>
	<rect x="1167.8" y="720.6" class="st4" width="62.8" height="197.7"/>
	<path class="st4" d="M1271.7,818.6c0-62.8,51.3-103.1,109-103.1c38.2,0,67.4,18.7,86.5,46.7l-48.3,30.5
		c-8.1-11.9-24.2-19.1-37.7-19.1c-28.8,0-45.8,20.4-45.8,45c0,25,17,45.4,45.8,45.4c13.6,0,29.7-7.2,37.7-19.1l48.3,30.5
		c-19.1,28-48.3,46.7-86.5,46.7C1323,922.1,1271.7,881.4,1271.7,818.6z"/>
	<path class="st4" d="M1710.3,720.6v197.7h-62.4v-22.5c-14.4,18.7-41.1,26.3-61.5,26.3c-49.2,0-95.9-39-95.9-103.1
		s46.7-103.1,95.9-103.1c20.4,0,47.1,7.6,61.5,26.3v-21.6C1647.9,720.6,1710.3,720.6,1710.3,720.6z M1645.4,819
		c0-25.4-21.6-44.5-45.4-44.5c-24.6,0-45.8,19.5-45.8,44.5s21.2,44.5,45.8,44.5C1624.2,863.5,1645.4,844.4,1645.4,819z"/>
	<path class="st4" d="M1887.6,767.7H1846v150.6h-62.8V767.7h-36.1v-47.1h36.1v-71.2h62.8v71.2h41.6V767.7z"/>
	<path class="st4" d="M1906.7,818.6c0-62.8,51.3-103.1,109-103.1c38.2,0,67.4,18.7,86.5,46.7l-48.3,30.5
		c-8.1-11.9-24.2-19.1-37.7-19.1c-28.8,0-45.8,20.4-45.8,45c0,25,17,45.4,45.8,45.4c13.6,0,29.7-7.2,37.7-19.1l48.3,30.5
		c-19.1,28-48.3,46.7-86.5,46.7C1958,922.1,1906.7,881.4,1906.7,818.6z"/>
	<path class="st4" d="M2337.7,811.8v106.5h-62.8V819c0-30.5-18.7-42-34.4-42c-17,0-38.2,8.9-38.2,42v99.3h-62.8v-302h62.8V752
		c7.2-25.4,39-36.5,56.8-36.5C2311.8,715.5,2337.7,751.1,2337.7,811.8z"/>
	<path class="st4" d="M2434.4,982.2c0,0,34.3,25.7,68.6,21.4c0,0,270.2-519,64.3-815c0,0-17.2-12.9-17.2,8.6
		C2550.2,197.2,2721.8,540.4,2434.4,982.2z"/>
	<path class="st4" d="M2616,782.5c-35.5,0-64.2,28.7-64.2,64.2c0,35.5,28.7,64.2,64.2,64.2c35.5,0,64.2-28.7,64.2-64.2
		C2680.2,811.3,2651.4,782.5,2616,782.5z M2616,878.3c-17.4,0-31.5-14.1-31.5-31.5c0-17.4,14.1-31.5,31.5-31.5
		c17.4,0,31.5,14.1,31.5,31.5C2647.5,864.2,2633.4,878.3,2616,878.3z"/>
	<path class="st4" d="M2701.2,786.8l-17.9,10.6l-57.6,33.1c-2.9-1.7-6.2-2.7-9.7-2.7c-10.5,0-19,8.5-19,19c0,10.5,8.5,19,19,19
		c10.4,0,18.8-8.3,19-18.7l57.8-33.2l8.6,13.8l16.9-8.2L2701.2,786.8z"/>
	<path class="st4" d="M1392.6,498.5l-45.5,6.5c-4.1-28.7-30.6-48.6-59.3-44.6c-28.7,4.1-48.6,30.6-44.6,59.3
		c2.4,17.1,12.9,31.1,27,38.8c0,0-21.3-55.8,16.1-66.5c37.4-10.7,46.4,40.8,46.4,40.8l66.4-11.5L1392.6,498.5z"/>
	<path class="st4" d="M1184.8,685.6l21.4-30.8c0.6-0.9,1.9-1.2,2.8-0.5s1.2,1.9,0.5,2.8l-21.4,30.8c-0.6,0.9-1.9,1.2-2.8,0.5
		C1184.3,687.7,1184.1,686.5,1184.8,685.6z"/>
	<path class="st4" d="M1202.2,689.9l21.4-30.8c0.6-0.9,1.9-1.2,2.8-0.5c0.9,0.6,1.2,1.9,0.5,2.8l-21.4,30.8
		c-0.6,0.9-1.9,1.2-2.8,0.5C1201.7,692,1201.5,690.8,1202.2,689.9z"/>
	<path class="st4" d="M1216.7,701.8l21.4-30.8c0.6-0.9,1.9-1.2,2.8-0.5s1.2,1.9,0.5,2.8L1220,704c-0.6,0.9-1.9,1.2-2.8,0.5
		S1216.1,702.7,1216.7,701.8z"/>
	<g>
		<g>
			<g>
				<path class="st5" d="M1252.3,654.1l-7.1-2.9c-26.1-10.6-38.7-40.3-28.1-66.4l0.4-0.9c10.6-26.1,40.3-38.7,66.4-28.1l7.1,2.9
					c26.1,10.6,38.7,40.3,28.1,66.4l-0.4,0.9C1308.1,652.1,1278.3,664.7,1252.3,654.1z"/>
			</g>
			<g>
				<path class="st4" d="M1228.1,576.1c-0.1,0-0.3-0.1-0.4-0.3c-0.7-0.6-0.9-1.7-0.3-2.4c9.5-12,24.3-18.8,39.7-18.1
					c0.9,0,1.7,0.8,1.6,1.8c0,0.9-0.8,1.7-1.8,1.6c-14.2-0.6-28,5.7-36.8,16.9C1229.6,576.2,1228.8,576.4,1228.1,576.1z"/>
			</g>
			<g>
				<path class="st6" d="M1309.7,571.9c7.9,13.3,9.7,29.9,3.5,45.3l-0.4,0.9c-10.6,26.1-40.3,38.7-66.4,28.1l-7.1-2.9
					c-7.5-3-13.8-7.6-18.8-13.2c5.5,9.2,13.9,16.7,24.6,21.1l7.1,2.9c26.1,10.6,55.8-2,66.4-28.1l0.4-0.9
					C1326.6,606.4,1322.3,586,1309.7,571.9z"/>
			</g>
		</g>
		<g>
			<g>
				<g>
					<path class="st7" d="M1256.9,595.2c-1.3-0.5-1.9-2-1.4-3.3l0.6-1.4c1-2.4-0.2-5.1-2.6-6.1c-2.5-1-5.3,0.1-6.2,2.5l-0.6,1.4
						c-0.5,1.3-2,1.9-3.3,1.4c-1.3-0.5-1.9-2-1.4-3.3l0.6-1.4c2-5,7.7-7.4,12.7-5.4c5.1,2.1,7.5,7.8,5.5,12.8l-0.6,1.4
						C1259.6,595.1,1258.1,595.7,1256.9,595.2z"/>
				</g>
			</g>
			<g>
				<g>
					<path class="st7" d="M1296.4,611.2c-1.3-0.5-1.9-2-1.4-3.3l0.6-1.4c1-2.4-0.2-5.1-2.6-6.1c-2.5-1-5.3,0.1-6.2,2.5l-0.6,1.4
						c-0.5,1.3-2,1.9-3.3,1.4s-1.9-2-1.4-3.3l0.6-1.4c2-5,7.7-7.4,12.7-5.4c5.1,2.1,7.5,7.8,5.5,12.8l-0.6,1.4
						C1299.2,611.1,1297.8,611.7,1296.4,611.2z"/>
				</g>
			</g>
		</g>
		<g>
			<path class="st7" d="M1264.8,613c-10.8-4.4-23.2-5.3-30.9-3.6c0,0-1.2,21.8,20,30.4c21.3,8.6,35.6-7.9,35.6-7.9
				C1285.2,625.4,1275.6,617.4,1264.8,613z"/>
		</g>
		<g>
			<path class="st4" d="M1240.6,608.7c5,4.6,12.8,8.8,22.1,12.5c9.2,3.7,16,5.5,22.5,5.6c-5-5.2-12.4-10.4-20.4-13.7
				C1256.8,609.8,1247.8,608.4,1240.6,608.7z"/>
		</g>
		<g>
			<path class="st8" d="M1274.1,641.2c-2.2-6.3-7.8-11.1-15-14.1c-7.3-3-14.6-3.3-20.6-0.3c2.9,5,7.7,9.9,15.4,13
				C1261.7,643,1268.6,642.8,1274.1,641.2z"/>
		</g>
	</g>
</g>
<text transform="matrix(1 0 0 1 445.3996 1257.6075)" class="st9 st10 st11">search every emoji domain</text>
</svg>
